<svg width="222" height="59" viewBox="0 0 222 59" fill="none" xmlns="http://www.w3.org/2000/svg">
<rect x="0.5" y="-0.5" width="210.5" height="57.5" transform="matrix(1 0 0 -1 10.5 58)" stroke="#DFA447"/>
<path d="M44.8013 45V44.328C45.7827 44.328 46.4013 44.2 46.6573 43.944L44.8653 39.048H38.7213L37.0573 43.752C37.2707 44.136 37.932 44.328 39.0413 44.328V45H33.7933V44.328C34.9667 44.328 35.6387 44.104 35.8093 43.656L42.0173 26.28H44.6093L50.8813 43.656C51.0307 44.104 51.7133 44.328 52.9293 44.328V45H44.8013ZM41.7613 30.536L39.1053 37.992H44.4813L41.7613 30.536ZM52.8463 45V44.328C53.9983 44.328 54.6703 44.1147 54.8623 43.688V27.08C53.7103 26.9947 53.0383 26.952 52.8463 26.952V26.216C53.2517 26.216 54.233 25.992 55.7903 25.544C57.3477 25.0747 58.3717 24.84 58.8623 24.84V43.688C59.0543 44.1147 59.7263 44.328 60.8783 44.328V45H52.8463ZM66.3316 37.288C66.3742 39.144 66.7902 40.744 67.5796 42.088C68.3902 43.432 69.4142 44.104 70.6516 44.104C72.5076 44.104 74.0009 43.4 75.1316 41.992L75.8996 42.376C75.2809 43.4 74.4702 44.1467 73.4676 44.616C72.4862 45.0853 71.1849 45.32 69.5636 45.32C68.7316 45.32 67.9209 45.2027 67.1316 44.968C66.3422 44.712 65.5529 44.3067 64.7636 43.752C63.9956 43.176 63.3662 42.3333 62.8756 41.224C62.4062 40.1147 62.1716 38.792 62.1716 37.256C62.1716 35.4 62.8222 33.832 64.1236 32.552C65.4462 31.2507 67.1529 30.6 69.2436 30.6C71.5262 30.6 73.2969 31.2507 74.5556 32.552C75.8142 33.832 76.4436 35.4107 76.4436 37.288H66.3316ZM66.3636 36.296H72.1876C72.0596 34.7813 71.7929 33.6187 71.3876 32.808C71.0036 31.976 70.3742 31.56 69.4996 31.56C68.7316 31.56 68.0382 31.9547 67.4196 32.744C66.8222 33.512 66.4702 34.696 66.3636 36.296ZM91.2753 30.92V31.592C90.1233 31.592 89.4087 31.7947 89.1313 32.2L85.8673 36.52L90.4433 43.88C90.6353 44.1787 91.2647 44.328 92.3313 44.328V45H85.0033V44.328C85.5367 44.328 85.942 44.296 86.2193 44.232L83.4353 39.752L80.1713 44.136C80.47 44.264 80.982 44.328 81.7073 44.328V45H76.5553V44.328C77.7073 44.328 78.4327 44.1147 78.7313 43.688L82.6353 38.472L78.6353 32.04C78.4433 31.7413 77.8247 31.592 76.7793 31.592V30.92H84.1073V31.592C83.5953 31.592 83.1793 31.624 82.8593 31.688L85.0673 35.24L87.6593 31.784C87.3607 31.656 86.8487 31.592 86.1233 31.592V30.92H91.2753ZM96.2146 33.288C96.7052 33.288 96.9506 33.7253 96.9506 34.6C96.9506 34.9627 96.7692 35.24 96.4066 35.432C96.0439 35.624 95.6599 35.72 95.2546 35.72C94.8279 35.72 94.4439 35.5707 94.1026 35.272C93.7826 34.9733 93.6226 34.5893 93.6226 34.12C93.6226 33.032 94.1559 32.1787 95.2226 31.56C96.3106 30.92 97.7186 30.6 99.4466 30.6C101.473 30.6 103.052 31.112 104.183 32.136C105.313 33.1387 105.879 34.4187 105.879 35.976V42.312C105.879 42.9947 105.985 43.496 106.199 43.816C106.433 44.136 106.711 44.296 107.031 44.296C107.308 44.296 107.553 44.2213 107.767 44.072C108.001 43.9227 108.119 43.7413 108.119 43.528H108.695C108.695 44.68 107.521 45.256 105.175 45.256C104.087 45.256 103.244 44.872 102.647 44.104C101.367 44.9147 99.8839 45.32 98.1986 45.32C94.6359 45.32 92.8546 44.0187 92.8546 41.416C92.8546 40.8827 93.0359 40.4027 93.3986 39.976C93.7826 39.5493 94.3586 39.1867 95.1266 38.888C95.8946 38.5893 96.5772 38.3547 97.1746 38.184C97.7932 38.0133 98.6359 37.8213 99.7026 37.608C100.769 37.3733 101.495 37.2027 101.879 37.096C101.879 35.0907 101.708 33.704 101.367 32.936C101.047 32.1467 100.3 31.752 99.1266 31.752C98.4226 31.752 97.7826 31.9013 97.2066 32.2C96.6519 32.4773 96.3212 32.84 96.2146 33.288ZM102.199 43.336C101.985 42.76 101.879 42.12 101.879 41.416V37.8C100.065 38.3547 98.8706 38.8133 98.2946 39.176C97.3986 39.7733 96.9506 40.5413 96.9506 41.48C96.9506 42.4613 97.1532 43.1653 97.5586 43.592C97.9852 44.0187 98.4652 44.232 98.9986 44.232C99.9372 44.232 101.004 43.9333 102.199 43.336ZM108.916 45V44.328C110.068 44.328 110.74 44.1147 110.932 43.688V32.84C109.78 32.7547 109.108 32.712 108.916 32.712V31.976C109.322 31.976 110.303 31.752 111.86 31.304C113.418 30.8347 114.442 30.6 114.932 30.6V31.944C115.999 31.048 117.172 30.6 118.452 30.6C120.5 30.6 122.09 30.984 123.22 31.752C124.351 32.4987 124.916 33.6293 124.916 35.144V43.688C125.108 44.1147 125.78 44.328 126.932 44.328V45H118.9V44.328C120.052 44.328 120.724 44.1147 120.916 43.688V34.92C120.916 33.96 120.692 33.1813 120.244 32.584C119.818 31.9867 119.156 31.688 118.26 31.688C116.938 31.688 115.828 32.1147 114.932 32.968V43.688C115.124 44.1147 115.796 44.328 116.948 44.328V45H108.916ZM139.117 31.24V27.08C137.965 26.9947 137.293 26.952 137.101 26.952V26.216C137.506 26.216 138.488 25.992 140.045 25.544C141.602 25.0747 142.626 24.84 143.117 24.84V43.08C144.269 43.1653 144.941 43.208 145.133 43.208V43.944C144.728 43.944 143.746 44.1787 142.189 44.648C140.632 45.096 139.608 45.32 139.117 45.32V44.264C138.093 44.968 136.813 45.32 135.277 45.32C134.722 45.32 134.146 45.2453 133.549 45.096C132.973 44.968 132.344 44.7333 131.661 44.392C131 44.0293 130.413 43.5813 129.901 43.048C129.389 42.4933 128.962 41.7787 128.621 40.904C128.28 40.008 128.109 39.0053 128.109 37.896C128.109 35.5493 128.866 33.7253 130.381 32.424C131.896 31.1227 133.762 30.472 135.981 30.472C137.197 30.472 138.242 30.728 139.117 31.24ZM139.117 32.264C138.306 31.7947 137.325 31.56 136.173 31.56C135.234 31.56 134.349 32.136 133.517 33.288C132.685 34.44 132.269 35.976 132.269 37.896C132.269 39.6667 132.621 41.1707 133.325 42.408C134.029 43.624 134.786 44.232 135.597 44.232C137.069 44.232 138.242 43.8907 139.117 43.208V32.264ZM146.354 45V44.328C147.506 44.328 148.178 44.1147 148.37 43.688V32.84C147.218 32.7547 146.546 32.712 146.354 32.712V31.976C146.759 31.976 147.74 31.752 149.298 31.304C150.855 30.8347 151.879 30.6 152.37 30.6V31.944C153.479 31.048 154.535 30.6 155.538 30.6C158.183 30.6 159.506 31.24 159.506 32.52C159.506 33.032 159.346 33.4373 159.026 33.736C158.727 34.0347 158.354 34.184 157.906 34.184C157.415 34.184 157.042 34.056 156.786 33.8C156.53 33.544 156.37 33.256 156.306 32.936C156.242 32.616 156.114 32.328 155.922 32.072C155.751 31.816 155.495 31.688 155.154 31.688C154.343 31.688 153.415 32.136 152.37 33.032V43.688C152.562 44.1147 153.234 44.328 154.386 44.328V45H146.354ZM163.683 33.288C164.174 33.288 164.419 33.7253 164.419 34.6C164.419 34.9627 164.238 35.24 163.875 35.432C163.513 35.624 163.129 35.72 162.723 35.72C162.297 35.72 161.913 35.5707 161.571 35.272C161.251 34.9733 161.091 34.5893 161.091 34.12C161.091 33.032 161.625 32.1787 162.691 31.56C163.779 30.92 165.187 30.6 166.915 30.6C168.942 30.6 170.521 31.112 171.651 32.136C172.782 33.1387 173.347 34.4187 173.347 35.976V42.312C173.347 42.9947 173.454 43.496 173.667 43.816C173.902 44.136 174.179 44.296 174.499 44.296C174.777 44.296 175.022 44.2213 175.235 44.072C175.47 43.9227 175.587 43.7413 175.587 43.528H176.163C176.163 44.68 174.99 45.256 172.643 45.256C171.555 45.256 170.713 44.872 170.115 44.104C168.835 44.9147 167.353 45.32 165.667 45.32C162.105 45.32 160.323 44.0187 160.323 41.416C160.323 40.8827 160.505 40.4027 160.867 39.976C161.251 39.5493 161.827 39.1867 162.595 38.888C163.363 38.5893 164.046 38.3547 164.643 38.184C165.262 38.0133 166.105 37.8213 167.171 37.608C168.238 37.3733 168.963 37.2027 169.347 37.096C169.347 35.0907 169.177 33.704 168.835 32.936C168.515 32.1467 167.769 31.752 166.595 31.752C165.891 31.752 165.251 31.9013 164.675 32.2C164.121 32.4773 163.79 32.84 163.683 33.288ZM169.667 43.336C169.454 42.76 169.347 42.12 169.347 41.416V37.8C167.534 38.3547 166.339 38.8133 165.763 39.176C164.867 39.7733 164.419 40.5413 164.419 41.48C164.419 42.4613 164.622 43.1653 165.027 43.592C165.454 44.0187 165.934 44.232 166.467 44.232C167.406 44.232 168.473 43.9333 169.667 43.336ZM184.457 45V44.328C185.609 44.328 186.281 44.1147 186.473 43.688V27.592C186.281 27.1653 185.609 26.952 184.457 26.952V26.28H190.249L197.065 41.16L203.881 26.28H209.737V26.952C208.585 26.952 207.913 27.1653 207.721 27.592V43.688C207.913 44.1147 208.585 44.328 209.737 44.328V45H201.641V44.328C202.793 44.328 203.465 44.1147 203.657 43.688V29.32L196.489 45H194.889L187.561 29.128V43.688C187.753 44.1147 188.425 44.328 189.577 44.328V45H184.457Z" fill="#DFA447"/>
</svg>
